<svg width="192" height="192" viewBox="0 0 192 192" fill="none" xmlns="http://www.w3.org/2000/svg">
<g clip-path="url(#clip0_386_2)">
<path d="M100.004 63.4828C100.004 61.2807 98.2191 59.4953 96.0168 59.4953C93.8147 59.4953 92.0293 61.2807 92.0293 63.4828C92.0293 65.6849 93.8147 67.4703 96.0168 67.4703C98.2191 67.4703 100.004 65.6849 100.004 63.4828Z" fill="white"/>
<path d="M136.012 109.464C143.15 109.464 145.611 102.485 145.611 102.485H125.674C125.674 102.485 128.874 109.464 136.012 109.464Z" fill="white"/>
<path d="M135.393 76.5667L125.674 100.492H127.668L135.393 80.9378L143.804 100.492H145.674L135.393 76.5667Z" fill="white"/>
<path d="M56.7603 109.464C63.8984 109.464 66.3599 102.485 66.3599 102.485H46.4225C46.4225 102.485 49.6222 109.464 56.7603 109.464Z" fill="white"/>
<path d="M56.1419 76.5667L46.4224 100.492H48.4161L56.1419 80.9378L64.553 100.492H66.4221L56.1419 76.5667Z" fill="white"/>
<path d="M93.2754 76.3175H96.0168H98.7582C98.7582 76.3175 101.001 73.8253 100.503 67.3456C100.503 67.3456 99.0074 68.841 96.0168 68.841C93.0261 68.841 91.5308 67.3456 91.5308 67.3456C91.0324 73.8253 93.2754 76.3175 93.2754 76.3175Z" fill="white"/>
<path d="M98.5089 19.6204H96.0168H93.5246C91.2816 20.368 91.2816 24.1063 91.2816 24.1063H96.0168H100.752C100.752 24.1063 100.752 20.368 98.5089 19.6204Z" fill="white"/>
<path d="M91.0947 52.0811H95.9545H96.0791H100.939V48.592C100.939 48.592 99.6928 49.8381 97.4498 49.8381H96.0791H95.9545H94.5838C92.3408 49.8381 91.0947 48.592 91.0947 48.592V52.0811Z" fill="white"/>
<path d="M96.0168 53.3895H90.7832C92.7769 56.3801 92.2785 58.8723 92.2785 58.8723C93.5246 58.1246 96.0168 58.1246 96.0168 58.1246C96.0168 58.1246 98.509 58.1246 99.7551 58.8723C99.7551 58.8723 99.2566 56.3801 101.25 53.3895H96.0168Z" fill="white"/>
<path d="M95.8304 17.8562L95.8299 17.8759C95.894 17.8705 95.9538 17.87 96.0168 17.8662C96.0796 17.87 96.1394 17.8705 96.2037 17.8759L96.203 17.8562C101.813 17.63 101.936 23.2341 101.936 23.2341L103.182 17.0037C101.546 13.4994 96.6267 13.4989 96.0168 13.5126C95.407 13.4989 90.4869 13.4994 88.8518 17.0037L90.0979 23.2341C90.0979 23.2341 90.2208 17.63 95.8304 17.8562Z" fill="white"/>
<path d="M100.129 27.0713C100.129 26.7984 99.8455 26.618 99.5983 26.7334L92.12 30.2204C91.9886 30.2815 91.9047 30.4136 91.9047 30.5584V31.1101C91.9047 31.383 92.188 31.5635 92.4352 31.4483L99.9135 27.961C100.045 27.9 100.129 27.7679 100.129 27.6231V27.0713Z" fill="white"/>
<path d="M100.129 29.065C100.129 28.7921 99.8455 28.6117 99.5983 28.7271L92.12 32.2141C91.9886 32.2752 91.9047 32.4073 91.9047 32.5521V33.1039C91.9047 33.3767 92.188 33.5572 92.4352 33.442L99.9135 29.9547C100.045 29.8937 100.129 29.7616 100.129 29.6168V29.065Z" fill="white"/>
<path d="M100.129 31.0587C100.129 30.7858 99.8455 30.6054 99.5983 30.7208L92.12 34.2079C91.9886 34.2689 91.9047 34.401 91.9047 34.5458V35.0976C91.9047 35.3705 92.188 35.5509 92.4352 35.4358L99.9135 31.9484C100.045 31.8874 100.129 31.7553 100.129 31.6105V31.0587Z" fill="white"/>
<path d="M100.129 33.0525C100.129 32.7796 99.8455 32.5992 99.5983 32.7146L92.12 36.2016C91.9886 36.2627 91.9047 36.3948 91.9047 36.5396V37.0913C91.9047 37.3642 92.188 37.5447 92.4352 37.4295L99.9135 33.9422C100.045 33.8812 100.129 33.7491 100.129 33.6043V33.0525Z" fill="white"/>
<path d="M100.129 35.0463C100.129 34.7734 99.8455 34.593 99.5983 34.7083L92.12 38.1954C91.9886 38.2565 91.9047 38.3885 91.9047 38.5333V39.0851C91.9047 39.358 92.188 39.5384 92.4352 39.4233L99.9135 35.936C100.045 35.8749 100.129 35.7428 100.129 35.5981V35.0463Z" fill="white"/>
<path d="M100.129 37.0401C100.129 36.7672 99.8455 36.5867 99.5983 36.7021L92.12 40.1892C91.9886 40.2502 91.9047 40.3823 91.9047 40.5271V41.0789C91.9047 41.3518 92.188 41.5322 92.4352 41.4171L99.9135 37.9298C100.045 37.8687 100.129 37.7366 100.129 37.5918V37.0401Z" fill="white"/>
<path d="M100.129 39.0337C100.129 38.7608 99.8455 38.5804 99.5983 38.6958L92.12 42.1828C91.9886 42.2439 91.9047 42.376 91.9047 42.5208V43.0725C91.9047 43.3454 92.188 43.5259 92.4352 43.4107L99.9135 39.9234C100.045 39.8624 100.129 39.7303 100.129 39.5855V39.0337Z" fill="white"/>
<path d="M100.129 41.0275C100.129 40.7546 99.8455 40.5742 99.5983 40.6895L92.12 44.1766C91.9886 44.2377 91.9047 44.3698 91.9047 44.5145V45.0663C91.9047 45.3392 92.188 45.5196 92.4352 45.4045L99.9135 41.9172C100.045 41.8561 100.129 41.724 100.129 41.5793V41.0275Z" fill="white"/>
<path d="M100.129 43.0213C100.129 42.7484 99.8455 42.5679 99.5983 42.6833L92.12 46.1704C91.9886 46.2314 91.9047 46.3635 91.9047 46.5083V47.0601C91.9047 47.333 92.188 47.5134 92.4352 47.3983L99.9135 43.911C100.045 43.8499 100.129 43.7178 100.129 43.573V43.0213Z" fill="white"/>
<path d="M99.5983 46.6707L94.9461 48.8401C95.2798 48.879 95.6342 48.9034 96.0167 48.9034C97.0423 48.9034 97.8874 48.7447 98.572 48.5241L99.9135 47.8986C100.045 47.8373 100.129 47.7055 100.129 47.5604V47.0086C100.129 46.736 99.8455 46.5553 99.5983 46.6707Z" fill="white"/>
<path d="M100.129 45.015C100.129 44.7421 99.8455 44.5617 99.5983 44.6771L92.3535 48.0552C92.7757 48.284 93.3177 48.5081 93.9846 48.6696L99.9136 45.9047C100.045 45.8437 100.129 45.7116 100.129 45.5668V45.015Z" fill="white"/>
<path d="M92.4353 27.4608L97.2238 25.2278H94.2753L92.12 26.2329C91.9887 26.294 91.9047 26.4261 91.9047 26.5709V27.1227C91.9047 27.3955 92.1881 27.576 92.4353 27.4608Z" fill="white"/>
<path d="M100.129 25.2278H98.5508L92.12 28.2267C91.9886 28.2877 91.9047 28.4198 91.9047 28.5646V29.1164C91.9047 29.3893 92.188 29.5697 92.4352 29.4546L99.9135 25.9672C100.045 25.9062 100.129 25.7741 100.129 25.6293V25.2278Z" fill="white"/>
<path d="M118.563 76.3603C118.573 76.3326 118.578 76.3156 118.578 76.3156C118.574 76.3307 118.568 76.3451 118.563 76.3603Z" fill="white"/>
<path d="M115.338 81.8003C115.338 81.8003 117.56 79.5765 118.563 76.3601C118.404 76.811 116.752 80.8453 108.983 79.4327L112.97 78.9343C108.733 76.9406 107.487 72.9531 107.487 72.9531L104.123 73.0777C104.123 73.0777 101.132 83.7941 115.338 81.8003Z" fill="white"/>
<path d="M87.9105 73.0777L84.546 72.9531C84.546 72.9531 83.2999 76.9406 79.0632 78.9343L83.0507 79.4327C75.2816 80.8453 73.6293 76.811 73.4703 76.3601C74.4736 79.5765 76.6957 81.8003 76.6957 81.8003C90.9011 83.7941 87.9105 73.0777 87.9105 73.0777Z" fill="white"/>
<path d="M73.4709 76.3603C73.4662 76.3451 73.4605 76.3307 73.4557 76.3156C73.4557 76.3156 73.4612 76.3326 73.4709 76.3603Z" fill="white"/>
<path d="M131.899 69.3394L133.394 67.0964C117.444 51.3956 103.239 53.3894 103.239 53.3894L101.744 58.8722C119.687 56.6292 131.899 69.3394 131.899 69.3394Z" fill="white"/>
<path d="M132.581 71.1095L135.914 73.3557C135.914 73.3557 135.987 72.3613 136.806 71.4225C137.626 70.4835 138.638 70.3088 138.638 70.3088L135.61 67.3353C132.747 68.8728 132.581 71.1095 132.581 71.1095Z" fill="white"/>
<path d="M60.1344 69.3394C60.1344 69.3394 72.3461 56.6292 90.2898 58.8722L88.7945 53.3894C88.7945 53.3894 74.5891 51.3956 58.6391 67.0964L60.1344 69.3394Z" fill="white"/>
<path d="M56.12 73.3556L59.4523 71.1094C59.4523 71.1094 59.2866 68.8727 56.4238 67.3355L53.3953 70.3086C53.3953 70.3086 54.4079 70.4836 55.2271 71.4224C56.0465 72.3615 56.12 73.3556 56.12 73.3556Z" fill="white"/>
<path d="M96.2659 145.102L95.7675 170.024L95.2691 145.102V83.5449H96.2659V145.102ZM102.995 130.896V81.5511L99.2565 78.0621H96.0167H92.7769L89.0386 81.5511V130.896C89.0386 130.896 89.2878 140.865 87.2941 143.606C87.2941 143.606 89.2878 146.348 89.2878 150.585C89.2878 154.821 93.0261 174.51 96.0167 178.248C99.0073 174.51 102.746 154.821 102.746 150.585C102.746 146.348 104.739 143.606 104.739 143.606C102.746 140.865 102.995 130.896 102.995 130.896Z" fill="white"/>
<path d="M54.9311 39.1379C55.6775 39.3465 56.4104 39.5217 57.1294 39.663C58.5572 39.9207 59.9743 40.1505 61.3278 40.2178C61.9999 40.2392 62.681 40.2858 63.3434 40.2813C64.0079 40.2826 64.6556 40.235 65.3001 40.1781C65.9503 40.1395 66.5893 40.066 67.2183 39.9573C67.5328 39.904 67.8441 39.8377 68.1548 39.7699C68.4689 39.7148 68.7806 39.6513 69.0902 39.5785C69.7092 39.4335 70.3198 39.2525 70.9227 39.0362C71.5313 38.8466 72.1354 38.6347 72.7315 38.38C73.9195 37.8425 75.1068 37.3086 76.2672 36.5752L76.702 36.2978L77.1377 36.0287C77.428 35.8472 77.7171 35.6568 78.0052 35.4574C78.5814 35.0589 79.1533 34.6251 79.7216 34.1568C80.8607 33.2733 81.985 32.2642 83.087 31.1103L83.0556 31.0784C81.9311 29.9717 80.6738 28.9947 79.3196 28.1982C78.6434 27.8224 77.9426 27.485 77.2224 27.1856C76.5024 26.8891 75.7612 26.6114 75.0116 26.4367C73.5103 26.0632 71.9467 25.8072 70.3906 25.8331C69.6115 25.8364 68.825 25.8551 68.0499 25.9508C67.2771 26.0579 66.5073 26.202 65.7464 26.3812C65.3666 26.4736 64.9865 26.5638 64.6142 26.6822C64.2434 26.8066 63.8758 26.9397 63.5117 27.081C62.7834 27.3636 62.0702 27.6798 61.3774 28.028C60.6947 28.4086 60.0328 28.8213 59.3963 29.2631C59.0783 29.4839 58.7665 29.7122 58.462 29.9475C58.157 30.182 57.8696 30.4516 57.5843 30.7123C57.0158 31.2412 56.478 31.7964 55.9756 32.3756C55.8502 32.5212 55.7258 32.6652 55.606 32.816C55.4881 32.971 55.3722 33.1275 55.2586 33.2853C55.0318 33.6008 54.8139 33.9218 54.6061 34.2482C54.1904 34.9012 53.8131 35.5736 53.4799 36.2674C53.1586 36.9852 52.8795 37.7206 52.646 38.4717L52.6889 38.4864C53.4495 38.7379 54.1956 38.9517 54.9311 39.1379Z" fill="white"/>
<path d="M82.8168 164.004C82.2868 163.917 81.4768 163.817 80.465 163.709C80.2123 163.682 79.9468 163.654 79.6697 163.625C79.3936 163.583 79.106 163.54 78.8082 163.495C78.2135 163.409 77.5773 163.317 76.9086 163.221C76.7419 163.197 76.5732 163.174 76.4025 163.15C76.2327 163.118 76.061 163.085 75.8878 163.053C75.5417 162.987 75.1888 162.92 74.8301 162.852C74.4723 162.785 74.1084 162.717 73.7401 162.648C73.5561 162.614 73.371 162.58 73.1848 162.545C72.9991 162.509 72.8145 162.459 72.6281 162.417C71.8841 162.241 71.127 162.063 70.3651 161.883C69.9831 161.802 69.6068 161.69 69.23 161.581C68.8534 161.473 68.4768 161.366 68.1015 161.258C67.7264 161.152 67.3526 161.045 66.981 160.94C66.6097 160.834 66.2491 160.697 65.8874 160.58C65.1675 160.337 64.4602 160.1 63.7748 159.869C63.1019 159.607 62.4502 159.352 61.8287 159.11C61.5182 158.99 61.2154 158.872 60.921 158.758C60.6272 158.643 60.3506 158.508 60.0787 158.391C59.5374 158.151 59.0339 157.928 58.5766 157.725C58.3478 157.625 58.1308 157.529 57.9262 157.439C57.7255 157.34 57.5374 157.247 57.3627 157.161C56.873 156.918 56.4907 156.73 56.2317 156.606C56.465 155.439 56.5722 154.256 56.5757 153.083C56.5856 151.923 56.5056 150.754 56.3409 149.617C56.2587 149.048 56.156 148.486 56.0339 147.932C55.9157 147.371 55.7889 146.799 55.6386 146.247C55.3415 145.136 54.959 144.09 54.5555 143.016C54.3479 142.489 54.1226 141.975 53.8789 141.477C53.6376 140.976 53.4019 140.454 53.1345 139.968C52.0563 138.031 50.8182 136.176 49.2656 134.543L49.2422 134.567C48.4332 135.446 47.7222 136.383 47.1253 137.376C46.5371 138.36 46.0666 139.397 45.7242 140.482C45.3818 141.567 45.1672 142.701 45.0869 143.875C45.0294 145.021 45.1096 146.203 45.3279 147.407C45.3843 147.706 45.4418 148.016 45.5213 148.308C45.6003 148.602 45.6883 148.897 45.7845 149.192C45.9774 149.782 46.2052 150.375 46.4669 150.968C46.4868 151.015 46.5092 151.06 46.5299 151.107C45.9109 150.682 45.2731 150.233 44.6144 149.754C43.3838 148.811 42.0704 147.784 40.7353 146.636C41.2901 145.579 41.7277 144.472 42.0627 143.344C42.3864 142.247 42.6496 141.09 42.8088 139.954C42.8906 139.384 42.9509 138.814 42.99 138.247C43.0229 137.686 43.0713 137.091 43.0797 136.521C43.1129 135.365 43.0289 134.26 42.9454 133.113C42.8951 132.548 42.8235 131.99 42.7301 131.443C42.679 131.173 42.6369 130.893 42.5925 130.613C42.5459 130.335 42.4941 130.06 42.4365 129.786C42.3254 129.237 42.1733 128.713 42.0298 128.174C41.893 127.631 41.7322 127.1 41.5453 126.579C41.4551 126.317 41.3449 126.067 41.2525 125.803C41.1603 125.539 41.0613 125.278 40.9554 125.02C40.7486 124.501 40.4934 124.005 40.2461 123.499L40.217 123.516C39.1964 124.13 38.2409 124.835 37.4015 125.613C36.5599 126.392 35.8163 127.255 35.1818 128.2C34.5497 129.145 34.0157 130.179 33.6187 131.276C33.2408 132.36 32.9842 133.518 32.8543 134.736C32.7805 135.352 32.779 135.952 32.7945 136.576C32.8129 137.197 32.8643 137.831 32.948 138.474C32.9545 138.53 32.9645 138.585 32.9722 138.641C32.4321 137.983 31.8978 137.305 31.3725 136.605C30.4449 135.364 29.5422 134.058 28.6712 132.7C29.4983 131.843 30.2281 130.905 30.8658 129.919C31.0213 129.678 31.1716 129.434 31.3161 129.188C31.4644 128.939 31.612 128.685 31.7518 128.431C32.0326 127.921 32.2931 127.402 32.5328 126.878C33.019 125.825 33.3886 124.768 33.758 123.663C34.4446 121.478 34.861 119.252 35.0457 117.032C35.0923 116.476 35.114 115.924 35.109 115.377C35.1304 114.819 35.1339 114.263 35.105 113.712C35.091 113.437 35.0699 113.162 35.0415 112.888C35.012 112.615 35.0066 112.332 34.9764 112.056C34.9246 111.501 34.8426 110.95 34.7292 110.4L34.6965 110.408C32.3835 111.008 30.3013 112.014 28.5418 113.47C28.102 113.834 27.682 114.225 27.2833 114.644C27.0842 114.853 26.89 115.069 26.7016 115.292C26.5172 115.514 26.346 115.739 26.1768 115.973C25.5036 116.906 24.9254 117.945 24.4514 119.078C24.0071 120.199 23.6965 121.404 23.4864 122.688C23.4795 122.732 23.4752 122.776 23.469 122.82C22.5509 120.637 21.7369 118.375 21.0531 116.051C21.0421 116.014 21.0324 115.977 21.0217 115.94C22.0594 115.352 23.0274 114.659 23.9216 113.894C24.3582 113.52 24.7771 113.128 25.1779 112.723C25.5941 112.313 25.9938 111.889 26.3751 111.454C26.7567 111.019 27.1203 110.572 27.4647 110.116C27.6369 109.888 27.8042 109.659 27.9666 109.427C28.1291 109.193 28.2924 108.958 28.4564 108.722C29.117 107.768 29.6833 106.79 30.1897 105.791C30.4621 105.288 30.7128 104.78 30.9396 104.27C31.0532 104.014 31.1609 103.757 31.2621 103.5L31.4096 103.113L31.5711 102.722C31.7809 102.2 31.9663 101.674 32.1248 101.144C32.2058 100.879 32.2731 100.614 32.3462 100.346C32.4294 100.078 32.5059 99.8083 32.5752 99.5379C32.714 98.9966 32.8252 98.451 32.9066 97.9C33.0083 97.3487 33.1098 96.7922 33.1646 96.2288L33.1307 96.2273C30.7424 96.1532 28.4511 96.5365 26.335 97.4424C26.0713 97.5553 25.8072 97.6762 25.5517 97.8053C25.3005 97.9344 25.0525 98.0715 24.8078 98.2165C24.3186 98.5066 23.8433 98.8288 23.383 99.1827C22.9225 99.5366 22.4774 99.9222 22.0487 100.339C21.8349 100.547 21.6223 100.763 21.4197 100.987C21.2253 101.209 21.0354 101.44 20.8505 101.677C20.4804 102.153 20.1295 102.658 19.7993 103.191C19.4743 103.723 19.1428 104.286 18.8963 104.868C18.8739 104.919 18.854 104.973 18.8318 105.024C18.7942 104.691 18.7553 104.358 18.7229 104.024C18.513 101.915 18.4163 99.8001 18.4213 97.6952C18.4475 97.6889 18.4739 97.6847 18.4998 97.6782C19.6373 97.4068 20.7408 97.02 21.7982 96.5465C22.8557 96.073 23.867 95.5128 24.8193 94.888C25.7957 94.2647 26.7427 93.5796 27.6068 92.8446C28.4504 92.1064 29.3346 91.3331 30.0967 90.5137C30.8396 89.6905 31.6232 88.8472 32.2714 87.9562C32.4311 87.7327 32.5916 87.5084 32.7531 87.2823C32.9214 87.058 33.0836 86.8312 33.2399 86.6017C33.5524 86.1426 33.8405 85.6726 34.1026 85.1904C34.3905 84.7149 34.6671 84.2314 34.9089 83.7325C35.0307 83.4832 35.1461 83.2308 35.2543 82.9743C35.3682 82.7199 35.496 82.4682 35.6054 82.209L35.5735 82.1983C34.4381 81.8262 33.2924 81.5677 32.1428 81.4364C31.5681 81.3706 30.9922 81.3365 30.4165 81.3355C29.8465 81.3362 29.2845 81.3726 28.7215 81.4416C27.5971 81.5807 26.4825 81.8568 25.3877 82.272C25.1141 82.376 24.8419 82.4884 24.571 82.6095C24.3036 82.7316 24.0487 82.8649 23.7902 83.0057C23.2756 83.2876 22.7689 83.6041 22.2718 83.9545C21.7778 84.3057 21.2799 84.6875 20.8183 85.1071C20.3682 85.5291 19.9306 85.9836 19.5074 86.4694C19.4725 86.51 19.4376 86.5519 19.4025 86.593C19.7858 84.3989 20.272 82.2528 20.8587 80.1816C20.9275 79.9386 21.0002 79.6994 21.0715 79.4581C22.2541 79.5219 23.4351 79.4591 24.6022 79.3004C25.7576 79.1476 26.8948 78.9006 27.9943 78.5761C28.5481 78.4154 29.0759 78.2292 29.6217 78.0356C30.1705 77.8434 30.7088 77.6336 31.2339 77.4073C31.759 77.1808 32.2711 76.938 32.7683 76.6791C33.2735 76.4234 33.7916 76.1637 34.2783 75.8821C34.7688 75.602 35.2428 75.3061 35.6986 74.9946C36.1811 74.6953 36.6462 74.3808 37.0918 74.0496C37.9586 73.3739 38.857 72.6911 39.639 71.9165L39.9299 71.6232L40.2347 71.3361C40.4353 71.1419 40.6307 70.9431 40.8203 70.7392C41.0102 70.5351 41.1947 70.326 41.3736 70.1114L41.6403 69.7874L41.9186 69.4682L41.891 69.4485C39.9256 68.0918 37.7706 67.1542 35.5389 66.7901C34.4182 66.6037 33.267 66.5511 32.0954 66.6373C30.9376 66.7313 29.7944 66.9852 28.6321 67.3695C27.4278 67.7768 26.247 68.3564 25.1173 69.0954C26.2665 66.8003 27.4999 64.6725 28.7559 62.7166C29.8769 63.1156 31.0303 63.3923 32.1891 63.5647C33.3356 63.7417 34.5046 63.8311 35.653 63.8314C36.2282 63.8321 36.7997 63.8114 37.3657 63.7701C37.9391 63.7347 38.523 63.6906 39.0907 63.6208C40.2319 63.4852 41.326 63.2584 42.4462 63.012C42.998 62.8819 43.5385 62.7321 44.0664 62.5616C44.6007 62.3974 45.1485 62.2364 45.6684 62.0415C47.7431 61.2527 49.7538 60.29 51.5953 58.9903L51.5743 58.9639C50.8205 58.0371 49.9958 57.1992 49.0984 56.466C48.2062 55.739 47.2504 55.1277 46.2251 54.6327C45.2006 54.1383 44.1095 53.7637 42.9594 53.5162C41.8304 53.2914 40.6524 53.2047 39.4292 53.2476C39.1249 53.26 38.8126 53.275 38.5078 53.3086C38.2058 53.3448 37.9017 53.3894 37.5959 53.4425C36.9841 53.5489 36.3651 53.6894 35.741 53.8636C35.6882 53.8788 35.6338 53.895 35.5803 53.9102C36.9447 52.4257 38.221 51.1743 39.3342 50.1615C39.6497 49.8465 39.9812 49.5846 40.2775 49.3211C40.4809 49.1449 40.6725 48.979 40.8582 48.818C41.8224 49.516 42.8527 50.1059 43.9174 50.5979C44.9598 51.0794 46.0641 51.5023 47.1654 51.8238C47.7179 51.9863 48.2732 52.1273 48.8285 52.2472C49.3812 52.3641 49.9604 52.4944 50.5236 52.5854C51.6613 52.7825 52.7681 52.8613 53.9138 52.9435C54.4802 52.9749 55.0412 52.9844 55.5957 52.9707C55.8701 52.9587 56.1542 52.96 56.4361 52.9552C56.7177 52.9495 56.9976 52.938 57.2757 52.9204C57.8342 52.8902 58.3743 52.8144 58.9273 52.7516C59.4835 52.6951 60.0321 52.6133 60.5729 52.5039C60.8448 52.4526 61.1082 52.3803 61.3816 52.3265C61.6557 52.2736 61.9279 52.2138 62.198 52.1468C62.7403 52.0172 63.2674 51.8392 63.8027 51.6658L63.79 51.6344C62.8647 49.4211 61.5732 47.5014 59.8855 45.9744C59.0434 45.2123 58.0974 44.5332 57.0696 43.9821C56.0518 43.4513 54.9435 43.0304 53.7572 42.7256C53.1591 42.5638 52.565 42.4746 51.9459 42.4009C51.3284 42.3298 50.6944 42.2892 50.0459 42.2797C49.3909 42.259 48.7534 42.3216 48.0925 42.3951C47.4343 42.4726 46.7652 42.5818 46.0888 42.7228C45.7703 42.8006 45.4498 42.8871 45.1291 42.9813C45.3264 42.7094 45.5203 42.4357 45.7092 42.1589C46.1157 41.6056 46.5018 41.0386 46.8671 40.4597C47.2355 39.885 47.5704 39.2774 47.9166 38.7112C48.256 38.1335 48.5748 37.5453 48.8723 36.9479C49.1719 36.3533 49.4415 35.7345 49.7129 35.1518C50.245 33.967 50.6884 32.7511 51.0313 31.5235C51.3839 30.316 51.6446 29.1148 51.7777 27.9046C52.0434 25.4881 51.8315 23.0907 50.9137 20.8948L50.9 20.8639C50.0511 21.2666 49.2424 21.7282 48.4539 22.1895C48.0604 22.4223 47.6743 22.6603 47.2955 22.9023C46.9174 23.1455 46.5593 23.4184 46.2022 23.6808C45.4912 24.2129 44.8113 24.7599 44.1663 25.3187C43.5243 25.8836 42.9379 26.4982 42.3759 27.0993C42.0963 27.4024 41.8257 27.7072 41.5645 28.0135C41.3026 28.319 41.0501 28.6253 40.8183 28.9518C40.3491 29.5943 39.9172 30.2405 39.5244 30.8867C38.7256 32.16 38.1445 33.5234 37.6999 34.8264C37.4833 35.4855 37.2924 36.1196 37.1673 36.779C37.0397 37.4354 36.9517 38.0821 36.9031 38.7169C36.8089 39.9909 36.8588 41.2006 37.0865 42.3804C37.3208 43.5914 37.7151 44.732 38.2531 45.7994C38.0557 45.9704 37.8524 46.1466 37.6361 46.334C37.3216 46.6134 36.9712 46.8925 36.6355 47.226C35.4544 48.3013 34.0997 49.6292 32.6512 51.2047C32.6657 51.1489 32.6814 51.0933 32.6948 51.0368C32.8573 50.3863 32.9966 49.7314 33.1135 49.0734C33.1716 48.7447 33.2244 48.4152 33.2715 48.0855C33.3211 47.7583 33.3749 47.4405 33.4175 47.1173C33.5932 45.8298 33.6715 44.5342 33.6565 43.2626C33.6623 42.0141 33.5646 40.7789 33.3513 39.5819C33.1384 38.3862 32.807 37.2246 32.3469 36.1365C31.8926 35.0546 31.2999 34.0348 30.5461 33.1077L30.5241 33.0818C27.7473 35.6069 25.5477 38.4734 24.112 41.4488C23.7511 42.191 23.4124 42.9172 23.1375 43.6604C22.8689 44.4093 22.6371 45.1512 22.443 45.8822C22.0377 47.3304 21.8531 48.7938 21.7987 50.1742C21.7741 50.8665 21.7776 51.5352 21.8324 52.1956C21.8949 52.862 21.9926 53.508 22.1247 54.1316C22.3906 55.3799 22.7871 56.5335 23.3265 57.5949C23.8922 58.6922 24.5917 59.6772 25.4082 60.5507C24.0776 62.6217 22.7717 64.8751 21.5545 67.3052C21.4877 65.9016 21.3499 64.5205 21.1393 63.1767C20.9472 61.892 20.6471 60.619 20.287 59.4095C19.9406 58.2085 19.499 57.0492 18.9574 55.9593C17.8618 53.7734 16.4184 51.8921 14.4508 50.5338L14.4226 50.5151C14.2985 50.7138 14.1747 50.9119 14.0513 51.1093C13.9317 51.3094 13.8233 51.5158 13.7119 51.7189C13.4918 52.1268 13.28 52.5358 13.0769 52.945C12.8735 53.354 12.6788 53.7635 12.4929 54.1722C12.402 54.3773 12.311 54.5816 12.2205 54.7853C12.1413 54.9943 12.062 55.2029 11.983 55.4108C11.3712 57.0796 10.868 58.7144 10.6116 60.3555C10.471 61.1697 10.3649 61.9702 10.2931 62.7538C10.2477 63.5503 10.236 64.3293 10.2569 65.0872C10.2814 65.8468 10.324 66.579 10.4259 67.2988C10.5356 68.022 10.6766 68.7208 10.8476 69.3924C11.0188 70.0643 11.2199 70.7088 11.4502 71.3244C11.6835 71.9407 11.9741 72.5386 12.2749 73.0991C12.8845 74.223 13.6002 75.2207 14.4117 76.0847C15.2573 76.9761 16.2105 77.7241 17.2465 78.3324C17.1713 78.5878 17.0937 78.8413 17.021 79.0987C16.3967 81.3023 15.8801 83.5844 15.4731 85.9166C15.4536 85.86 15.4352 85.8032 15.415 85.7466C15.192 85.1109 14.9477 84.4833 14.6831 83.866C14.4296 83.251 14.1804 82.6508 13.8973 82.06C13.6172 81.4696 13.3168 80.8911 12.9976 80.3271C12.8393 80.0455 12.6704 79.7659 12.5074 79.493C12.3481 79.2211 12.1839 78.9529 12.0147 78.689C11.3378 77.6338 10.5819 76.6454 9.75078 75.752C9.33608 75.3056 8.89871 74.882 8.44912 74.4882C8.00551 74.0964 7.54146 73.7321 7.05698 73.3994C6.08802 72.7345 5.03707 72.1961 3.90163 71.8243L3.86923 71.8143C3.74362 72.2672 3.61553 72.7158 3.51634 73.1691C3.42263 73.6242 3.33715 74.0777 3.26014 74.5291C3.10812 75.4322 2.98101 76.3242 2.90126 77.2062C2.84694 78.0944 2.82476 78.9689 2.83373 79.8252C2.83821 80.2531 2.85043 80.6768 2.87036 81.095C2.8913 81.5134 2.94587 81.9319 2.99347 82.3421C3.20431 83.9859 3.48967 85.5333 3.99932 86.9788C4.48978 88.4217 5.04031 89.7428 5.78522 90.9346C6.50945 92.1251 7.30371 93.1771 8.19242 94.0797C9.10606 94.9834 10.0842 95.7373 11.1145 96.3364C12.1448 96.9358 13.2274 97.3804 14.3504 97.6722C14.3783 97.6795 14.4062 97.6854 14.4338 97.6924C14.4286 99.9252 14.5313 102.169 14.7536 104.405C14.788 104.758 14.8293 105.112 14.869 105.466C14.8338 105.417 14.8007 105.368 14.7653 105.319C14.3494 104.774 13.978 104.237 13.5618 103.718C13.1514 103.198 12.7237 102.693 12.2806 102.206C12.059 101.963 11.8335 101.724 11.6042 101.489C11.3834 101.254 11.1644 101.023 10.9381 100.797C10.4875 100.346 10.0214 99.9137 9.54169 99.5032C9.06219 99.0933 8.56874 98.7047 8.06308 98.3411C7.81012 98.1594 7.55417 97.984 7.29549 97.815C7.04054 97.6461 6.78857 97.4838 6.52988 97.3288C4.4681 96.0889 2.20669 95.2919 -0.181564 95.2179L-0.215454 95.2174C-0.191031 96.1532 -0.151411 97.0758 -0.0529694 97.9808C0.0654093 98.8857 0.212703 99.7729 0.387155 100.638C0.474382 101.07 0.568333 101.497 0.669017 101.918C0.77967 102.339 0.909268 102.753 1.03811 103.162C1.29905 103.978 1.5844 104.768 1.89193 105.528C1.97069 105.717 2.04919 105.905 2.1272 106.093C2.21642 106.277 2.30539 106.461 2.39386 106.644C2.5743 107.008 2.75971 107.364 2.94986 107.711C3.33017 108.407 3.72942 109.069 4.14561 109.697C5.01588 110.946 5.98086 112.05 6.97275 112.998L7.34857 113.346L7.74532 113.677C8.01099 113.892 8.2789 114.097 8.5488 114.292C9.08836 114.683 9.63589 115.033 10.1894 115.342C10.7427 115.652 11.3019 115.92 11.8656 116.148C12.4448 116.372 13.0268 116.554 13.6099 116.696C14.8044 116.988 16.0024 117.105 17.1947 117.059C17.2059 117.098 17.2161 117.138 17.2276 117.177C17.9598 119.665 18.8315 122.086 19.8165 124.421C19.7621 124.378 19.7066 124.335 19.653 124.292C18.6135 123.454 17.5045 122.696 16.3817 122.01C15.2887 121.314 14.152 120.701 12.9886 120.187C12.6988 120.058 12.4032 119.936 12.1136 119.819C11.8283 119.7 11.5409 119.588 11.2523 119.482C10.6751 119.272 10.0922 119.089 9.50555 118.937C7.15991 118.328 4.7552 118.198 2.44221 118.798L2.40956 118.807C2.70588 119.7 3.02837 120.572 3.37428 121.418C3.55123 121.84 3.71696 122.261 3.91908 122.666C4.1202 123.07 4.3268 123.468 4.53814 123.859C4.96181 124.639 5.40093 125.393 5.86447 126.11C6.35444 126.818 6.86035 127.494 7.37897 128.135C9.45695 130.7 11.8936 132.628 14.372 133.861C15.5867 134.494 16.8802 134.918 18.115 135.198C18.7359 135.336 19.3507 135.434 19.9575 135.491C20.2616 135.519 20.5611 135.538 20.8629 135.545C21.1682 135.55 21.4713 135.545 21.7716 135.529C23.0022 135.468 24.1865 135.24 25.318 134.857C26.2426 136.299 27.201 137.685 28.1857 139.002C28.743 139.744 29.3094 140.463 29.8821 141.161C29.8293 141.139 29.7755 141.117 29.7231 141.095C29.1031 140.842 28.4753 140.612 27.8415 140.403C27.2105 140.192 26.5586 140.015 25.943 139.831C24.6939 139.476 23.4271 139.213 22.1633 139.051C20.9183 138.877 19.6916 138.793 18.4752 138.837C17.2615 138.88 16.0687 139.042 14.9233 139.347C13.7757 139.653 12.6928 140.09 11.666 140.708L11.6376 140.726C12.156 141.508 12.7309 142.239 13.3006 142.952C13.5877 143.307 13.8786 143.654 14.1729 143.993C14.4672 144.332 14.789 144.647 15.1 144.962C15.7283 145.588 16.3673 146.181 17.0128 146.738C17.6647 147.29 18.3558 147.782 19.0312 148.251C19.3709 148.483 19.7113 148.707 20.0517 148.921C20.3902 149.137 20.7321 149.34 21.0877 149.523C21.7905 149.895 22.4913 150.229 23.1869 150.524C24.5603 151.132 25.9953 151.508 27.3463 151.763C28.0302 151.881 28.6821 151.982 29.356 152.008C30.0234 152.04 30.6759 152.034 31.3109 151.992C32.5852 151.901 33.7722 151.682 34.9106 151.283C36.072 150.879 37.1416 150.327 38.1185 149.644C39.5366 150.865 40.9312 151.957 42.2399 152.957C42.9464 153.472 43.6305 153.954 44.2947 154.409C44.2326 154.402 44.1686 154.396 44.107 154.389C43.4404 154.321 42.772 154.277 42.1045 154.255C41.7708 154.245 41.4371 154.24 41.1042 154.24C40.7755 154.239 40.449 154.238 40.1238 154.236C38.8243 154.247 37.5334 154.352 36.2743 154.553C35.0382 154.726 33.8303 154.999 32.6766 155.382C31.523 155.764 30.4239 156.256 29.4096 156.871C28.4043 157.477 27.4802 158.209 26.671 159.088L26.6485 159.113C29.5477 161.496 32.6978 163.266 35.8517 164.259C36.6387 164.51 37.4043 164.743 38.1818 164.906C38.9619 165.065 39.7297 165.188 40.4811 165.275C41.973 165.47 43.4503 165.44 44.824 165.297C45.5131 165.221 46.174 165.123 46.8205 164.972C47.4712 164.814 48.0968 164.624 48.6949 164.404C49.8924 163.961 50.9772 163.402 51.9494 162.716C52.955 161.996 53.8293 161.161 54.5764 160.225C54.8565 160.345 55.2742 160.519 55.8103 160.739C56.0015 160.817 56.2076 160.901 56.4269 160.99C56.6504 161.069 56.8877 161.153 57.1376 161.241C57.6371 161.416 58.1871 161.608 58.7782 161.815C59.0748 161.914 59.3769 162.031 59.6966 162.126C60.0166 162.219 60.3461 162.316 60.6835 162.414C61.3579 162.61 62.0644 162.814 62.7944 163.026C63.5336 163.2 64.2959 163.379 65.0728 163.562C65.4615 163.649 65.8493 163.753 66.2473 163.826C66.6451 163.898 67.0453 163.97 67.4466 164.043C67.8475 164.115 68.2493 164.187 68.6513 164.259C69.0528 164.331 69.4533 164.406 69.8587 164.449C70.6652 164.55 71.4667 164.65 72.2537 164.748C72.4506 164.77 72.6452 164.799 72.8406 164.815C73.0363 164.83 73.2312 164.843 73.4246 164.857C73.8111 164.884 74.1926 164.911 74.5685 164.937C74.9433 164.962 75.3124 164.987 75.6742 165.011C75.8549 165.022 76.0341 165.033 76.2111 165.044C76.3888 165.047 76.5645 165.049 76.7382 165.052C77.431 165.058 78.0907 165.065 78.707 165.071C79.0143 165.073 79.3111 165.074 79.5957 165.075C79.8806 165.06 80.1535 165.047 80.4131 165.034C81.4514 164.977 82.276 164.919 82.8134 164.859C83.179 164.819 83.176 164.063 82.8168 164.004Z" fill="white"/>
<path d="M192.277 95.2179C189.889 95.2919 187.628 96.0889 185.566 97.3288C185.307 97.4838 185.055 97.6463 184.8 97.815C184.542 97.984 184.286 98.1594 184.033 98.3414C183.527 98.705 183.034 99.0933 182.554 99.5035C182.075 99.9137 181.608 100.346 181.158 100.797C180.932 101.023 180.713 101.254 180.491 101.489C180.262 101.724 180.037 101.963 179.815 102.206C179.372 102.694 178.944 103.198 178.534 103.718C178.118 104.237 177.746 104.774 177.33 105.32C177.295 105.368 177.262 105.417 177.226 105.466C177.267 105.112 177.308 104.759 177.342 104.405C177.565 102.169 177.667 99.9252 177.662 97.6924C177.69 97.6854 177.718 97.6794 177.745 97.6722C178.868 97.3804 179.951 96.9358 180.981 96.3367C182.012 95.7373 182.99 94.9837 183.903 94.08C184.792 93.1773 185.586 92.1251 186.311 90.9346C187.055 89.7428 187.606 88.4217 188.097 86.9788C188.606 85.5333 188.891 83.9861 189.102 82.3421C189.15 81.9318 189.204 81.5137 189.225 81.095C189.245 80.6768 189.257 80.2534 189.262 79.8252C189.271 78.9691 189.249 78.0946 189.195 77.2062C189.115 76.3242 188.988 75.4322 188.836 74.5291C188.759 74.0777 188.673 73.6242 188.58 73.1691C188.48 72.7158 188.352 72.2674 188.226 71.8143L188.194 71.8243C187.059 72.1964 186.008 72.7344 185.039 73.3996C184.554 73.7321 184.09 74.0967 183.647 74.4884C183.197 74.882 182.76 75.3056 182.345 75.7522C181.514 76.6454 180.758 77.6338 180.081 78.6893C179.912 78.9529 179.748 79.2211 179.588 79.493C179.426 79.7661 179.256 80.0455 179.098 80.3271C178.779 80.8914 178.479 81.4695 178.199 82.0599C177.915 82.6511 177.666 83.251 177.413 83.866C177.148 84.4833 176.903 85.1109 176.681 85.7469C176.661 85.8035 176.642 85.8603 176.623 85.9168C176.216 83.5844 175.699 81.3026 175.075 79.099C175.002 78.8415 174.924 78.5878 174.849 78.3324C175.885 77.7243 176.839 76.9764 177.684 76.0849C178.496 75.2209 179.211 74.223 179.821 73.0991C180.122 72.5388 180.412 71.9409 180.646 71.3244C180.876 70.7091 181.077 70.0643 181.248 69.3927C181.419 68.7208 181.56 68.022 181.67 67.299C181.772 66.579 181.814 65.8468 181.839 65.0874C181.86 64.3293 181.848 63.5503 181.803 62.7538C181.731 61.9702 181.625 61.1697 181.484 60.3558C181.228 58.7144 180.725 57.0798 180.113 55.4108C180.034 55.2029 179.955 54.9946 179.875 54.7855C179.785 54.5816 179.694 54.3773 179.603 54.1724C179.417 53.7635 179.222 53.3542 179.019 52.945C178.816 52.5358 178.604 52.1271 178.384 51.7189C178.273 51.5158 178.164 51.3094 178.045 51.1095C177.921 50.9119 177.797 50.7138 177.673 50.5151L177.645 50.5338C175.678 51.8921 174.234 53.7737 173.139 55.9596C172.597 57.0494 172.155 58.2085 171.809 59.4095C171.449 60.619 171.149 61.892 170.957 63.1767C170.746 64.5205 170.608 65.9019 170.541 67.3055C169.324 64.8751 168.018 62.6219 166.688 60.5507C167.504 59.6772 168.204 58.6925 168.77 57.5952C169.309 56.5335 169.705 55.3799 169.971 54.1316C170.103 53.508 170.201 52.862 170.263 52.1959C170.318 51.5352 170.322 50.8668 170.297 50.1745C170.243 48.794 170.058 47.3306 169.653 45.8824C169.458 45.1512 169.227 44.4093 168.958 43.6604C168.683 42.9175 168.345 42.191 167.984 41.4491C166.548 38.4737 164.348 35.6069 161.572 33.0821L161.55 33.1077C160.796 34.0348 160.203 35.0549 159.749 36.1365C159.289 37.2248 158.958 38.3862 158.744 39.5822C158.531 40.7792 158.434 42.0143 158.439 43.2626C158.424 44.5342 158.503 45.8298 158.678 47.1173C158.721 47.4408 158.774 47.7583 158.824 48.0855C158.871 48.4152 158.924 48.7447 158.982 49.0737C159.099 49.7313 159.239 50.3865 159.401 51.037C159.415 51.0936 159.43 51.1489 159.445 51.205C157.996 49.6292 156.642 48.3013 155.461 47.2262C155.125 46.8928 154.774 46.6136 154.46 46.334C154.244 46.1468 154.04 45.9706 153.843 45.7994C154.381 44.732 154.775 43.5914 155.009 42.3804C155.237 41.2006 155.287 39.9909 155.193 38.7171C155.144 38.0821 155.056 37.4354 154.929 36.7792C154.804 36.1198 154.613 35.4855 154.396 34.8264C153.951 33.5234 153.37 32.1602 152.571 30.8867C152.179 30.2405 151.747 29.5945 151.277 28.9518C151.046 28.6253 150.793 28.319 150.531 28.0135C150.27 27.7072 149.999 27.4024 149.72 27.0993C149.158 26.4985 148.571 25.8837 147.93 25.3187C147.284 24.7599 146.605 24.2129 145.894 23.6811C145.536 23.4184 145.179 23.1455 144.8 22.9025C144.422 22.6603 144.035 22.4225 143.642 22.1895C142.854 21.7282 142.045 21.2669 141.196 20.8639L141.182 20.8948C140.264 23.0907 140.052 25.4881 140.318 27.9046C140.451 29.1148 140.712 30.3163 141.064 31.5235C141.407 32.7514 141.851 33.9671 142.383 35.1518C142.654 35.7345 142.924 36.3533 143.223 36.9479C143.521 37.5453 143.84 38.1337 144.179 38.7112C144.526 39.2776 144.861 39.8852 145.229 40.4599C145.594 41.0389 145.98 41.6056 146.386 42.1591C146.575 42.4357 146.769 42.7096 146.967 42.9813C146.646 42.8871 146.326 42.8006 146.007 42.7228C145.331 42.5818 144.661 42.4726 144.003 42.3951C143.342 42.3216 142.705 42.259 142.05 42.2797C141.401 42.2894 140.767 42.3298 140.15 42.4008C139.531 42.4749 138.937 42.5638 138.338 42.7258C137.152 43.0304 136.044 43.4516 135.026 43.9824C133.998 44.5332 133.052 45.2123 132.21 45.9744C130.522 47.5014 129.231 49.4211 128.306 51.6346L128.293 51.6658C128.828 51.8392 129.355 52.0174 129.898 52.1468C130.168 52.2138 130.44 52.2739 130.714 52.3265C130.988 52.3803 131.251 52.4526 131.523 52.5039C132.064 52.6133 132.612 52.6951 133.168 52.7519C133.721 52.8144 134.262 52.8904 134.82 52.9204C135.098 52.938 135.378 52.9495 135.659 52.9552C135.942 52.96 136.226 52.9587 136.5 52.9707C137.054 52.9844 137.615 52.9749 138.182 52.9438C139.328 52.8613 140.435 52.7825 141.572 52.5854C142.136 52.4944 142.714 52.3641 143.268 52.2475C143.823 52.1276 144.378 51.9863 144.93 51.8238C146.032 51.5023 147.136 51.0796 148.179 50.5979C149.243 50.1062 150.273 49.5163 151.238 48.818C151.423 48.9792 151.615 49.1449 151.818 49.3211C152.115 49.5848 152.446 49.8465 152.761 50.1615C153.875 51.1743 155.151 52.4257 156.515 53.9102C156.462 53.895 156.408 53.8788 156.354 53.8636C155.731 53.6894 155.112 53.5491 154.5 53.4427C154.194 53.3894 153.89 53.3448 153.588 53.3086C153.283 53.2752 152.971 53.26 152.667 53.2478C151.443 53.2047 150.266 53.2917 149.136 53.5162C147.986 53.764 146.895 54.1383 145.871 54.6327C144.845 55.1277 143.89 55.739 142.998 56.466C142.1 57.1994 141.275 58.0371 140.521 58.9639L140.5 58.9906C142.342 60.29 144.353 61.2527 146.427 62.0415C146.947 62.2366 147.495 62.3974 148.029 62.5619C148.557 62.7321 149.098 62.8819 149.649 63.0119C150.77 63.2584 151.864 63.4852 153.005 63.621C153.573 63.6908 154.157 63.7347 154.73 63.7701C155.296 63.8114 155.868 63.8321 156.443 63.8316C157.591 63.8314 158.76 63.7417 159.907 63.5647C161.065 63.3922 162.219 63.1156 163.34 62.7166C164.596 64.6725 165.829 66.8006 166.978 69.0954C165.849 68.3567 164.668 67.777 163.464 67.3695C162.301 66.9855 161.158 66.7313 160 66.6373C158.829 66.5513 157.678 66.6039 156.557 66.7903C154.325 67.1542 152.17 68.0918 150.205 69.4488L150.177 69.4682L150.455 69.7874L150.722 70.1117C150.901 70.3263 151.085 70.5351 151.275 70.7392C151.465 70.9431 151.66 71.1422 151.861 71.3361L152.166 71.6234L152.457 71.9165C153.238 72.6911 154.137 73.3742 155.004 74.0498C155.45 74.3808 155.915 74.6953 156.397 74.9946C156.853 75.3064 157.327 75.602 157.818 75.8821C158.304 76.1637 158.822 76.4234 159.327 76.6791C159.825 76.938 160.337 77.1807 160.862 77.4073C161.387 77.6336 161.925 77.8434 162.474 78.0358C163.02 78.2292 163.548 78.4154 164.101 78.5761C165.201 78.9006 166.338 79.1478 167.494 79.3004C168.661 79.4591 169.842 79.5222 171.024 79.4584C171.095 79.6993 171.168 79.9386 171.237 80.1816C171.824 82.2531 172.31 84.3989 172.693 86.593C172.658 86.5521 172.623 86.51 172.589 86.4694C172.165 85.9839 171.728 85.5291 171.277 85.1071C170.816 84.6874 170.318 84.3056 169.824 83.9545C169.327 83.6041 168.82 83.2876 168.305 83.0057C168.047 82.8652 167.792 82.7316 167.525 82.6095C167.254 82.4883 166.982 82.376 166.708 82.2723C165.613 81.8568 164.499 81.5807 163.374 81.4419C162.811 81.3726 162.249 81.3365 161.68 81.3355C161.104 81.3367 160.528 81.3706 159.953 81.4364C158.803 81.5677 157.658 81.8264 156.522 82.1983L156.49 82.2092C156.6 82.4682 156.728 82.7199 156.842 82.9746C156.95 83.2308 157.065 83.4835 157.187 83.7327C157.429 84.2316 157.705 84.7149 157.993 85.1904C158.255 85.6726 158.543 86.1426 158.856 86.6017C159.012 86.8315 159.175 87.0583 159.343 87.2826C159.504 87.5084 159.665 87.7329 159.824 87.9562C160.473 88.8474 161.256 89.6905 161.999 90.5139C162.761 91.3331 163.645 92.1064 164.489 92.8446C165.353 93.5798 166.3 94.2649 167.277 94.8882C168.229 95.513 169.24 96.073 170.298 96.5468C171.355 97.02 172.459 97.4071 173.596 97.6785C173.622 97.6847 173.648 97.6892 173.674 97.6951C173.679 99.8 173.583 101.916 173.373 104.024C173.341 104.358 173.301 104.691 173.264 105.024C173.242 104.973 173.222 104.919 173.199 104.868C172.953 104.286 172.621 103.723 172.297 103.191C171.966 102.658 171.615 102.153 171.245 101.677C171.06 101.44 170.87 101.209 170.676 100.987C170.474 100.763 170.261 100.547 170.047 100.339C169.618 99.9222 169.173 99.5369 168.713 99.183C168.253 98.8291 167.777 98.5069 167.288 98.2168C167.043 98.0717 166.795 97.9344 166.544 97.8053C166.289 97.6765 166.024 97.5553 165.761 97.4424C163.644 96.5368 161.354 96.1532 158.965 96.2273L158.931 96.2287C158.986 96.7922 159.087 97.3487 159.189 97.9C159.271 98.451 159.382 98.9968 159.521 99.5379C159.59 99.8083 159.666 100.078 159.75 100.346C159.823 100.614 159.89 100.879 159.971 101.144C160.13 101.674 160.315 102.2 160.525 102.722L160.686 103.113L160.834 103.5C160.935 103.757 161.043 104.014 161.156 104.27C161.383 104.78 161.634 105.288 161.906 105.791C162.413 106.79 162.978 107.768 163.639 108.722C163.804 108.958 163.967 109.193 164.129 109.427C164.292 109.659 164.459 109.889 164.631 110.116C164.975 110.572 165.339 111.019 165.721 111.454C166.102 111.889 166.502 112.313 166.918 112.723C167.319 113.128 167.738 113.52 168.174 113.894C169.068 114.659 170.036 115.353 171.074 115.94C171.063 115.977 171.054 116.015 171.043 116.051C170.359 118.375 169.545 120.638 168.627 122.82C168.62 122.776 168.616 122.732 168.609 122.688C168.399 121.404 168.089 120.199 167.644 119.078C167.17 117.945 166.592 116.906 165.919 115.973C165.75 115.739 165.579 115.514 165.394 115.292C165.206 115.069 165.012 114.853 164.812 114.644C164.414 114.225 163.994 113.834 163.554 113.47C161.795 112.014 159.712 111.008 157.399 110.409L157.367 110.4C157.253 110.95 157.171 111.501 157.12 112.056C157.089 112.332 157.084 112.615 157.054 112.888C157.026 113.162 157.005 113.437 156.991 113.712C156.962 114.263 156.965 114.819 156.987 115.377C156.982 115.924 157.003 116.476 157.05 117.032C157.235 119.252 157.651 121.478 158.338 123.663C158.707 124.768 159.077 125.825 159.563 126.878C159.803 127.402 160.063 127.921 160.344 128.431C160.484 128.685 160.632 128.939 160.78 129.188C160.924 129.434 161.074 129.678 161.23 129.919C161.867 130.905 162.597 131.843 163.425 132.7C162.554 134.058 161.651 135.364 160.723 136.606C160.198 137.305 159.664 137.983 159.124 138.641C159.131 138.585 159.141 138.53 159.147 138.474C159.231 137.831 159.283 137.197 159.301 136.576C159.317 135.952 159.315 135.352 159.241 134.736C159.112 133.518 158.855 132.361 158.477 131.276C158.08 130.179 157.546 129.144 156.914 128.2C156.279 127.255 155.536 126.392 154.694 125.613C153.855 124.835 152.899 124.13 151.879 123.516L151.85 123.499C151.602 124.005 151.347 124.501 151.141 125.02C151.035 125.278 150.936 125.539 150.843 125.803C150.751 126.067 150.641 126.317 150.55 126.579C150.364 127.1 150.203 127.631 150.066 128.175C149.923 128.713 149.77 129.237 149.659 129.786C149.602 130.06 149.55 130.335 149.503 130.613C149.459 130.893 149.417 131.173 149.366 131.443C149.272 131.99 149.201 132.548 149.15 133.113C149.067 134.26 148.983 135.365 149.016 136.521C149.024 137.091 149.073 137.686 149.106 138.247C149.145 138.814 149.205 139.384 149.287 139.954C149.446 141.09 149.709 142.247 150.033 143.344C150.368 144.472 150.806 145.579 151.361 146.636C150.026 147.784 148.712 148.811 147.481 149.754C146.823 150.233 146.185 150.682 145.566 151.107C145.586 151.061 145.609 151.015 145.629 150.968C145.891 150.375 146.118 149.782 146.311 149.192C146.408 148.897 146.495 148.602 146.574 148.308C146.654 148.016 146.711 147.706 146.768 147.407C146.986 146.203 147.066 145.021 147.009 143.875C146.929 142.701 146.714 141.567 146.372 140.482C146.029 139.397 145.559 138.36 144.97 137.377C144.374 136.383 143.663 135.446 142.854 134.567L142.83 134.543C141.277 136.176 140.04 138.031 138.961 139.968C138.694 140.454 138.458 140.976 138.217 141.478C137.973 141.975 137.748 142.489 137.54 143.016C137.137 144.09 136.754 145.136 136.457 146.247C136.307 146.799 136.18 147.371 136.062 147.932C135.94 148.486 135.837 149.049 135.755 149.618C135.59 150.754 135.51 151.923 135.52 153.083C135.524 154.256 135.631 155.439 135.864 156.607C135.605 156.73 135.223 156.918 134.733 157.161C134.558 157.247 134.37 157.34 134.17 157.439C133.965 157.529 133.748 157.625 133.519 157.725C133.062 157.928 132.558 158.151 132.017 158.391C131.745 158.508 131.469 158.643 131.175 158.758C130.881 158.872 130.578 158.99 130.267 159.11C129.646 159.352 128.994 159.607 128.321 159.869C127.636 160.1 126.929 160.337 126.208 160.58C125.847 160.698 125.486 160.834 125.115 160.94C124.743 161.045 124.37 161.152 123.994 161.259C123.619 161.366 123.242 161.473 122.866 161.581C122.489 161.69 122.113 161.802 121.731 161.883C120.969 162.063 120.212 162.241 119.468 162.417C119.281 162.459 119.097 162.509 118.911 162.545C118.725 162.58 118.54 162.614 118.356 162.648C117.987 162.717 117.624 162.785 117.266 162.852C116.907 162.921 116.554 162.987 116.208 163.053C116.035 163.086 115.863 163.118 115.693 163.15C115.523 163.174 115.354 163.197 115.187 163.221C114.518 163.317 113.882 163.41 113.288 163.495C112.989 163.54 112.702 163.583 112.426 163.625C112.149 163.654 111.883 163.682 111.631 163.709C110.619 163.817 109.809 163.917 109.279 164.004C108.92 164.063 108.917 164.819 109.282 164.859C109.82 164.919 110.644 164.978 111.682 165.034C111.942 165.047 112.215 165.061 112.5 165.075C112.785 165.074 113.081 165.072 113.389 165.072C114.005 165.065 114.665 165.059 115.358 165.052C115.532 165.049 115.707 165.047 115.885 165.044C116.062 165.033 116.241 165.022 116.421 165.011C116.783 164.987 117.152 164.962 117.527 164.937C117.903 164.911 118.285 164.884 118.671 164.857C118.865 164.843 119.059 164.83 119.255 164.815C119.45 164.8 119.645 164.77 119.842 164.748C120.629 164.65 121.431 164.55 122.237 164.449C122.642 164.406 123.043 164.331 123.444 164.259C123.846 164.187 124.248 164.115 124.649 164.043C125.051 163.971 125.451 163.898 125.848 163.826C126.247 163.753 126.634 163.649 127.023 163.562C127.8 163.379 128.562 163.2 129.302 163.026C130.031 162.814 130.738 162.61 131.412 162.414C131.75 162.316 132.079 162.219 132.399 162.126C132.719 162.031 133.021 161.915 133.317 161.815C133.909 161.608 134.459 161.416 134.958 161.241C135.208 161.153 135.445 161.069 135.669 160.99C135.888 160.901 136.094 160.817 136.285 160.74C136.821 160.519 137.239 160.345 137.519 160.225C138.266 161.161 139.141 161.996 140.146 162.716C141.119 163.402 142.203 163.961 143.401 164.404C143.999 164.625 144.625 164.814 145.275 164.972C145.922 165.123 146.583 165.221 147.272 165.297C148.645 165.44 150.123 165.47 151.615 165.275C152.366 165.188 153.134 165.065 153.914 164.906C154.692 164.743 155.457 164.51 156.244 164.259C159.398 163.266 162.548 161.496 165.447 159.113L165.425 159.088C164.616 158.209 163.691 157.477 162.686 156.871C161.672 156.256 160.573 155.765 159.419 155.382C158.265 154.999 157.058 154.726 155.822 154.553C154.562 154.352 153.272 154.247 151.972 154.236C151.647 154.238 151.32 154.239 150.992 154.241C150.659 154.24 150.325 154.245 149.991 154.255C149.324 154.277 148.656 154.321 147.989 154.389C147.927 154.396 147.863 154.402 147.801 154.409C148.465 153.954 149.15 153.472 149.856 152.957C151.164 151.957 152.559 150.865 153.977 149.644C154.954 150.327 156.024 150.879 157.185 151.283C158.324 151.682 159.51 151.901 160.785 151.992C161.42 152.034 162.072 152.04 162.74 152.008C163.414 151.982 164.066 151.882 164.749 151.763C166.101 151.508 167.535 151.132 168.909 150.524C169.604 150.229 170.305 149.895 171.008 149.523C171.364 149.34 171.706 149.137 172.044 148.921C172.385 148.707 172.725 148.483 173.065 148.251C173.74 147.782 174.431 147.29 175.083 146.738C175.729 146.181 176.367 145.588 176.996 144.962C177.307 144.647 177.628 144.333 177.923 143.993C178.217 143.654 178.508 143.307 178.795 142.952C179.365 142.239 179.94 141.508 180.458 140.726L180.43 140.708C179.403 140.09 178.32 139.653 177.173 139.347C176.027 139.042 174.834 138.88 173.621 138.837C172.404 138.793 171.177 138.877 169.933 139.051C168.669 139.213 167.402 139.476 166.153 139.831C165.537 140.015 164.885 140.192 164.254 140.403C163.621 140.612 162.993 140.843 162.373 141.095C162.32 141.117 162.266 141.139 162.214 141.161C162.786 140.463 163.353 139.744 163.91 139.002C164.895 137.685 165.853 136.299 166.778 134.857C167.909 135.24 169.093 135.468 170.324 135.529C170.624 135.545 170.927 135.55 171.233 135.545C171.535 135.538 171.834 135.519 172.138 135.491C172.745 135.434 173.36 135.336 173.981 135.198C175.216 134.918 176.509 134.494 177.724 133.861C180.202 132.628 182.639 130.7 184.717 128.135C185.235 127.494 185.741 126.818 186.231 126.111C186.695 125.393 187.134 124.639 187.558 123.859C187.769 123.468 187.976 123.07 188.177 122.666C188.379 122.261 188.544 121.841 188.721 121.418C189.067 120.572 189.39 119.701 189.686 118.807L189.654 118.798C187.341 118.198 184.936 118.328 182.59 118.937C182.004 119.089 181.421 119.272 180.843 119.483C180.555 119.588 180.268 119.7 179.982 119.819C179.693 119.936 179.397 120.058 179.107 120.187C177.944 120.701 176.807 121.314 175.714 122.01C174.591 122.696 173.482 123.454 172.443 124.292C172.389 124.335 172.334 124.378 172.28 124.421C173.264 122.086 174.136 119.665 174.868 117.177C174.88 117.138 174.89 117.098 174.901 117.059C176.093 117.105 177.291 116.988 178.486 116.696C179.069 116.554 179.651 116.372 180.23 116.148C180.794 115.921 181.353 115.652 181.907 115.342C182.46 115.033 183.008 114.683 183.547 114.292C183.817 114.097 184.085 113.892 184.35 113.677L184.747 113.347L185.123 112.998C186.115 112.05 187.08 110.946 187.95 109.697C188.366 109.07 188.766 108.407 189.146 107.711C189.336 107.364 189.521 107.008 189.702 106.644C189.79 106.461 189.879 106.277 189.969 106.093C190.047 105.905 190.125 105.717 190.204 105.528C190.511 104.768 190.797 103.978 191.058 103.162C191.186 102.754 191.316 102.339 191.427 101.918C191.527 101.497 191.621 101.07 191.709 100.638C191.883 99.7729 192.031 98.8857 192.149 97.9808C192.247 97.0761 192.287 96.1532 192.311 95.2177L192.277 95.2179Z" fill="white"/>
<path d="M112.455 34.2223C113.03 34.6928 113.608 35.1277 114.189 35.5259C114.77 35.9269 115.357 36.2726 115.94 36.6462C117.11 37.3692 118.301 37.9105 119.495 38.4371C120.092 38.6905 120.701 38.8859 121.309 39.0855C121.914 39.2964 122.526 39.4713 123.146 39.6109C123.456 39.6832 123.77 39.7357 124.082 39.799C124.392 39.8681 124.704 39.9284 125.019 39.98C125.649 40.0827 126.289 40.1504 126.938 40.1838C127.578 40.2496 128.229 40.2815 128.891 40.279C129.222 40.2778 129.556 40.2681 129.893 40.2499C130.23 40.2312 130.56 40.2319 130.899 40.209C131.573 40.1701 132.26 40.0979 132.959 39.9924L133.486 39.9087L134.008 39.8329C134.358 39.7781 134.711 39.7151 135.067 39.6438C135.779 39.5015 136.505 39.3248 137.241 39.1184C137.965 38.9363 138.702 38.7209 139.449 38.4725L139.437 38.4288C139.196 37.6667 138.911 36.9183 138.58 36.1953C138.239 35.4948 137.854 34.8144 137.43 34.1562C136.593 32.815 135.553 31.6695 134.403 30.6091C133.832 30.0666 133.209 29.6113 132.568 29.1694C131.924 28.733 131.259 28.3126 130.567 27.9502C129.87 27.606 129.152 27.2943 128.421 27.0166C128.054 26.8788 127.686 26.7455 127.313 26.6281C126.937 26.5237 126.558 26.428 126.177 26.3413C125.415 26.1678 124.644 26.0297 123.872 25.9288C123.094 25.8545 122.312 25.8304 121.535 25.8363C119.984 25.8204 118.428 26.1015 116.941 26.4756C116.755 26.5234 116.57 26.5743 116.385 26.6269C116.201 26.6817 116.017 26.75 115.834 26.8143C115.469 26.9461 115.108 27.0872 114.752 27.2374C114.039 27.538 113.348 27.8757 112.681 28.2503C111.346 29.053 110.111 30.0155 109.009 31.1096L109.04 31.1432C110.163 32.3148 111.303 33.3263 112.455 34.2223Z" fill="white"/>
</g>
<defs>
<clipPath id="clip0_386_2">
<rect width="192" height="192" fill="white"/>
</clipPath>
</defs>
</svg>
